HIERARCHY
ROOT Hips
{
	OFFSET 0.000000 0.000000 0.000000
	CHANNELS 6 Xposition Yposition Zposition Xrotation Yrotation Zrotation
	JOINT Thigh.L
	{
		OFFSET 0.054046 0.031244 -0.092002
		CHANNELS 3 Xrotation Yrotation Zrotation
		JOINT Shin.L
		{
			OFFSET 0.053690 0.016399 -0.415591
			CHANNELS 3 Xrotation Yrotation Zrotation
			JOINT Foot.L
			{
				OFFSET -0.041485 0.033064 -0.436536
				CHANNELS 3 Xrotation Yrotation Zrotation
				JOINT Toe.L
				{
					OFFSET 0.044922 -0.120190 -0.064720
					CHANNELS 3 Xrotation Yrotation Zrotation
					End Site
					{
						OFFSET 0.000000 0.050000 0.000000
					}
				}
			}
		}
	}
	JOINT Thigh.R
	{
		OFFSET -0.059377 0.028530 -0.102388
		CHANNELS 3 Xrotation Yrotation Zrotation
		JOINT Shin.R
		{
			OFFSET -0.043069 0.021818 -0.399208
			CHANNELS 3 Xrotation Yrotation Zrotation
			JOINT Foot.R
			{
				OFFSET 0.015624 0.021512 -0.445620
				CHANNELS 3 Xrotation Yrotation Zrotation
				JOINT Toe.R
				{
					OFFSET -0.037250 -0.120932 -0.064591
					CHANNELS 3 Xrotation Yrotation Zrotation
					End Site
					{
						OFFSET 0.000000 0.050000 0.000000
					}
				}
			}
		}
	}
	JOINT Spine
	{
		OFFSET -0.001988 0.018950 0.109139
		CHANNELS 3 Xrotation Yrotation Zrotation
		JOINT Spine.2
		{
			OFFSET 0.006637 0.002097 0.133498
			CHANNELS 3 Xrotation Yrotation Zrotation
			JOINT Chest
			{
				OFFSET -0.010379 -0.023445 0.049355
				CHANNELS 3 Xrotation Yrotation Zrotation
				JOINT Neck
				{
					OFFSET -0.009481 0.029353 0.165135
					CHANNELS 3 Xrotation Yrotation Zrotation
					JOINT Head
					{
						OFFSET 0.022434 -0.021985 0.169035
						CHANNELS 3 Xrotation Yrotation Zrotation
						End Site
						{
							OFFSET 0.000000 0.050000 0.000000
						}
					}
				}
				JOINT Clavicle.L
				{
					OFFSET 0.043733 0.008346 0.084306
					CHANNELS 3 Xrotation Yrotation Zrotation
					JOINT UpperArm.L
					{
						OFFSET 0.107907 0.014178 0.061564
						CHANNELS 3 Xrotation Yrotation Zrotation
						JOINT ForeArm.L
						{
							OFFSET 0.266507 0.035372 -0.076419
							CHANNELS 3 Xrotation Yrotation Zrotation
							JOINT Hand.L
							{
								OFFSET 0.265592 0.006027 0.021364
								CHANNELS 3 Xrotation Yrotation Zrotation
								JOINT Thumb1.L
								{
									OFFSET 0.154583 0.002714 0.009619
									CHANNELS 3 Xrotation Yrotation Zrotation
									JOINT Thumb2.L
									{
										OFFSET 0.029896 0.000678 0.002405
										CHANNELS 3 Xrotation Yrotation Zrotation
										End Site
										{
											OFFSET 0.024913 0.000565 0.002004
										}
									}
								}
								JOINT Index1.L
								{
									OFFSET 0.137583 0.002714 0.009619
									CHANNELS 3 Xrotation Yrotation Zrotation
									JOINT Index2.L
									{
										OFFSET 0.029896 0.000678 0.002405
										CHANNELS 3 Xrotation Yrotation Zrotation
										JOINT Index3.L
										{
											OFFSET 0.021924 0.000498 0.001764
											CHANNELS 3 Xrotation Yrotation Zrotation
											End Site
											{
												OFFSET 0.017937 0.000407 0.001443
											}
										}
									}
								}
								JOINT Middle1.L
								{
									OFFSET 0.119583 0.002714 0.009619
									CHANNELS 3 Xrotation Yrotation Zrotation
									JOINT Middle2.L
									{
										OFFSET 0.030892 0.000701 0.002485
										CHANNELS 3 Xrotation Yrotation Zrotation
										JOINT Middle3.L
										{
											OFFSET 0.021924 0.000498 0.001764
											CHANNELS 3 Xrotation Yrotation Zrotation
											End Site
											{
												OFFSET 0.017937 0.000407 0.001443
											}
										}
									}
								}
								JOINT Ring1.L
								{
									OFFSET 0.101583 0.002714 0.009619
									CHANNELS 3 Xrotation Yrotation Zrotation
									JOINT Ring2.L
									{
										OFFSET 0.028899 0.000656 0.002325
										CHANNELS 3 Xrotation Yrotation Zrotation
										JOINT Ring3.L
										{
											OFFSET 0.019931 0.000452 0.001603
											CHANNELS 3 Xrotation Yrotation Zrotation
											End Site
											{
												OFFSET 0.016941 0.000384 0.001363
											}
										}
									}
								}
								JOINT Pinky1.L
								{
									OFFSET 0.085583 0.002714 0.009619
									CHANNELS 3 Xrotation Yrotation Zrotation
									JOINT Pinky2.L
									{
										OFFSET 0.023917 0.000543 0.001924
										CHANNELS 3 Xrotation Yrotation Zrotation
										JOINT Pinky3.L
										{
											OFFSET 0.016941 0.000384 0.001363
											CHANNELS 3 Xrotation Yrotation Zrotation
											End Site
											{
												OFFSET 0.013951 0.000317 0.001122
											}
										}
									}
								}
							}
						}
					}
				}
				JOINT Clavicle.R
				{
					OFFSET -0.041768 0.014449 0.083719
					CHANNELS 3 Xrotation Yrotation Zrotation
					JOINT UpperArm.R
					{
						OFFSET -0.093223 0.009236 0.057352
						CHANNELS 3 Xrotation Yrotation Zrotation
						JOINT ForeArm.R
						{
							OFFSET -0.282741 0.022575 -0.043639
							CHANNELS 3 Xrotation Yrotation Zrotation
							JOINT Hand.R
							{
								OFFSET -0.262253 0.018657 -0.003430
								CHANNELS 3 Xrotation Yrotation Zrotation
								JOINT Thumb1.R
								{
									OFFSET -0.154687 0.008515 -0.001565
									CHANNELS 3 Xrotation Yrotation Zrotation
									JOINT Thumb2.R
									{
										OFFSET -0.029922 0.002129 -0.000391
										CHANNELS 3 Xrotation Yrotation Zrotation
										End Site
										{
											OFFSET -0.024935 0.001774 -0.000326
										}
									}
								}
								JOINT Index1.R
								{
									OFFSET -0.137687 0.008515 -0.001565
									CHANNELS 3 Xrotation Yrotation Zrotation
									JOINT Index2.R
									{
										OFFSET -0.029922 0.002129 -0.000391
										CHANNELS 3 Xrotation Yrotation Zrotation
										JOINT Index3.R
										{
											OFFSET -0.021943 0.001561 -0.000287
											CHANNELS 3 Xrotation Yrotation Zrotation
											End Site
											{
												OFFSET -0.017953 0.001277 -0.000235
											}
										}
									}
								}
								JOINT Middle1.R
								{
									OFFSET -0.119687 0.008515 -0.001565
									CHANNELS 3 Xrotation Yrotation Zrotation
									JOINT Middle2.R
									{
										OFFSET -0.030919 0.002200 -0.000404
										CHANNELS 3 Xrotation Yrotation Zrotation
										JOINT Middle3.R
										{
											OFFSET -0.021943 0.001561 -0.000287
											CHANNELS 3 Xrotation Yrotation Zrotation
											End Site
											{
												OFFSET -0.017953 0.001277 -0.000235
											}
										}
									}
								}
								JOINT Ring1.R
								{
									OFFSET -0.101687 0.008515 -0.001565
									CHANNELS 3 Xrotation Yrotation Zrotation
									JOINT Ring2.R
									{
										OFFSET -0.028924 0.002058 -0.000378
										CHANNELS 3 Xrotation Yrotation Zrotation
										JOINT Ring3.R
										{
											OFFSET -0.019948 0.001419 -0.000261
											CHANNELS 3 Xrotation Yrotation Zrotation
											End Site
											{
												OFFSET -0.016956 0.001206 -0.000222
											}
										}
									}
								}
								JOINT Pinky1.R
								{
									OFFSET -0.085687 0.008515 -0.001565
									CHANNELS 3 Xrotation Yrotation Zrotation
									JOINT Pinky2.R
									{
										OFFSET -0.023937 0.001703 -0.000313
										CHANNELS 3 Xrotation Yrotation Zrotation
										JOINT Pinky3.R
										{
											OFFSET -0.016956 0.001206 -0.000222
											CHANNELS 3 Xrotation Yrotation Zrotation
											End Site
											{
												OFFSET -0.013964 0.000993 -0.000183
											}
										}
									}
								}
							}
						}
					}
				}
			}
		}
	}
}
MOTION
Frames: 7
Frame Time: 0.03333333
0.077158 0.026253 1.092954 39.439952 -4.396792 12.424901 -77.190989 10.094775 -13.838960 36.662147 11.725298 6.855376 5.912427 2.847589 4.689991 -1.579600 -1.993891 -0.419578 -85.010848 9.157800 18.616793 49.956673 -12.346440 -11.618100 -7.303972 -0.959279 -14.122926 1.305045 -1.758789 0.436549 66.521914 -14.239072 4.704648 -9.899279 4.872959 7.609241 0.333554 0.103901 4.890089 -8.797609 15.350103 -15.370848 -9.903403 -6.933885 -2.465200 0.173748 16.650756 -24.572896 25.779928 45.422037 -40.374852 -12.293124 -18.726252 -63.069766 -16.978636 -23.660097 -15.110325 0.000000 0.000000 0.000000 0.000000 0.000000 0.000000 0.000000 0.000000 0.000000 0.000000 0.000000 0.000000 0.000000 0.000000 0.000000 0.000000 0.000000 0.000000 0.000000 0.000000 0.000000 0.000000 0.000000 0.000000 0.000000 0.000000 0.000000 0.000000 0.000000 0.000000 0.000000 0.000000 0.000000 0.000000 0.000000 0.000000 0.000000 0.000000 0.000000 0.000000 0.000000 0.000000 -2.771756 14.108236 38.076782 -29.945728 -0.233615 22.576587 -16.325088 9.273532 8.957431 27.017470 27.751146 6.059211 0.000000 0.000000 0.000000 0.000000 0.000000 0.000000 0.000000 0.000000 0.000000 0.000000 0.000000 0.000000 0.000000 0.000000 0.000000 0.000000 0.000000 0.000000 0.000000 0.000000 0.000000 0.000000 0.000000 0.000000 0.000000 0.000000 0.000000 0.000000 0.000000 0.000000 0.000000 0.000000 0.000000 0.000000 0.000000 0.000000 0.000000 0.000000 0.000000 0.000000 0.000000 0.000000
0.077074 0.026354 1.092869 39.434402 -4.398045 12.440372 -77.233174 10.114314 -13.853271 36.754122 11.758476 6.814069 5.937582 2.811776 4.704757 -1.582111 -1.979424 -0.426113 -85.083399 9.193452 18.642249 50.093945 -12.402309 -11.574541 -7.229917 -0.979375 -14.118774 1.300559 -1.767050 0.440802 66.562459 -14.234753 4.709613 -9.877387 4.865032 7.626519 0.284638 0.115603 4.896968 -8.793909 15.369013 -15.415675 -9.873547 -6.923627 -2.495153 0.210957 16.675449 -24.626265 25.814464 45.391581 -40.440124 -12.395296 -18.633421 -63.091561 -17.187210 -23.587126 -15.129523 0.000000 0.000000 0.000000 0.000000 0.000000 0.000000 0.000000 0.000000 0.000000 0.000000 0.000000 0.000000 0.000000 0.000000 0.000000 0.000000 0.000000 0.000000 0.000000 0.000000 0.000000 0.000000 0.000000 0.000000 0.000000 0.000000 0.000000 0.000000 0.000000 0.000000 0.000000 0.000000 0.000000 0.000000 0.000000 0.000000 0.000000 0.000000 0.000000 0.000000 0.000000 0.000000 -2.779199 14.107658 38.101895 -29.984957 -0.149366 22.557975 -16.561482 9.208735 8.939514 26.782735 27.666536 6.150826 0.000000 0.000000 0.000000 0.000000 0.000000 0.000000 0.000000 0.000000 0.000000 0.000000 0.000000 0.000000 0.000000 0.000000 0.000000 0.000000 0.000000 0.000000 0.000000 0.000000 0.000000 0.000000 0.000000 0.000000 0.000000 0.000000 0.000000 0.000000 0.000000 0.000000 0.000000 0.000000 0.000000 0.000000 0.000000 0.000000 0.000000 0.000000 0.000000 0.000000 0.000000 0.000000
0.077034 0.026393 1.092736 39.419110 -4.427075 12.434671 -77.308290 10.128629 -13.864521 36.923302 11.832510 6.807498 5.966142 2.803301 4.713694 -1.584616 -1.969822 -0.434391 -85.177995 9.239490 18.680273 50.272119 -12.473375 -11.520052 -7.132176 -1.026481 -14.102143 1.297863 -1.775422 0.446610 66.576755 -14.237918 4.705681 -9.827496 4.846688 7.635659 0.229642 0.138091 4.901640 -8.799137 15.400696 -15.451550 -9.852583 -6.899582 -2.498777 0.259144 16.720684 -24.693992 25.827917 45.369586 -40.479734 -12.496376 -18.518912 -63.092456 -17.324620 -23.479187 -15.120796 0.000000 0.000000 0.000000 0.000000 0.000000 0.000000 0.000000 0.000000 0.000000 0.000000 0.000000 0.000000 0.000000 0.000000 0.000000 0.000000 0.000000 0.000000 0.000000 0.000000 0.000000 0.000000 0.000000 0.000000 0.000000 0.000000 0.000000 0.000000 0.000000 0.000000 0.000000 0.000000 0.000000 0.000000 0.000000 0.000000 0.000000 0.000000 0.000000 0.000000 0.000000 0.000000 -2.777407 14.114608 38.136915 -30.033566 -0.046218 22.568876 -16.786001 9.100182 8.882203 26.504602 27.454188 6.240343 0.000000 0.000000 0.000000 0.000000 0.000000 0.000000 0.000000 0.000000 0.000000 0.000000 0.000000 0.000000 0.000000 0.000000 0.000000 0.000000 0.000000 0.000000 0.000000 0.000000 0.000000 0.000000 0.000000 0.000000 0.000000 0.000000 0.000000 0.000000 0.000000 0.000000 0.000000 0.000000 0.000000 0.000000 0.000000 0.000000 0.000000 0.000000 0.000000 0.000000 0.000000 0.000000
0.076788 0.026400 1.092547 39.396482 -4.430267 12.444541 -77.397648 10.146202 -13.886768 37.124366 11.912468 6.785594 6.001878 2.796855 4.714340 -1.583484 -1.962262 -0.443911 -85.296473 9.290724 18.723117 50.500722 -12.567398 -11.498131 -7.003960 -1.099937 -14.080525 1.292439 -1.790017 0.452259 66.588411 -14.240453 4.709399 -9.776154 4.828531 7.641988 0.168587 0.149276 4.901906 -8.862671 15.423716 -15.490255 -9.871472 -6.887313 -2.528749 0.319520 16.766375 -24.770268 25.817288 45.354116 -40.496109 -12.581835 -18.405182 -63.114735 -17.470201 -23.389108 -15.118457 0.000000 0.000000 0.000000 0.000000 0.000000 0.000000 0.000000 0.000000 0.000000 0.000000 0.000000 0.000000 0.000000 0.000000 0.000000 0.000000 0.000000 0.000000 0.000000 0.000000 0.000000 0.000000 0.000000 0.000000 0.000000 0.000000 0.000000 0.000000 0.000000 0.000000 0.000000 0.000000 0.000000 0.000000 0.000000 0.000000 0.000000 0.000000 0.000000 0.000000 0.000000 0.000000 -2.790353 14.129304 38.189333 -30.091690 0.019919 22.550634 -17.063925 9.010057 8.811614 26.259107 27.270640 6.297057 0.000000 0.000000 0.000000 0.000000 0.000000 0.000000 0.000000 0.000000 0.000000 0.000000 0.000000 0.000000 0.000000 0.000000 0.000000 0.000000 0.000000 0.000000 0.000000 0.000000 0.000000 0.000000 0.000000 0.000000 0.000000 0.000000 0.000000 0.000000 0.000000 0.000000 0.000000 0.000000 0.000000 0.000000 0.000000 0.000000 0.000000 0.000000 0.000000 0.000000 0.000000 0.000000
0.077231 0.026334 1.092314 39.362718 -4.492471 12.446821 -77.522322 10.158577 -13.900948 37.411965 12.031035 6.745928 6.061918 2.830656 4.730528 -1.591474 -1.953032 -0.454428 -85.445132 9.354003 18.776671 50.790569 -12.676955 -11.449917 -6.879293 -1.222172 -14.043659 1.280739 -1.797321 0.462187 66.622464 -14.237490 4.715955 -9.773157 4.814812 7.661111 0.161656 0.173521 4.912811 -8.886386 15.445909 -15.538886 -9.928398 -6.880831 -2.524551 0.366000 16.827169 -24.842898 25.778487 45.331715 -40.476447 -12.673563 -18.256886 -63.148387 -17.624315 -23.397798 -15.114809 0.000000 0.000000 0.000000 0.000000 0.000000 0.000000 0.000000 0.000000 0.000000 0.000000 0.000000 0.000000 0.000000 0.000000 0.000000 0.000000 0.000000 0.000000 0.000000 0.000000 0.000000 0.000000 0.000000 0.000000 0.000000 0.000000 0.000000 0.000000 0.000000 0.000000 0.000000 0.000000 0.000000 0.000000 0.000000 0.000000 0.000000 0.000000 0.000000 0.000000 0.000000 0.000000 -2.782051 14.126844 38.221783 -30.161203 0.127844 22.538125 -17.307131 8.912994 8.784908 26.050590 27.190548 6.338391 0.000000 0.000000 0.000000 0.000000 0.000000 0.000000 0.000000 0.000000 0.000000 0.000000 0.000000 0.000000 0.000000 0.000000 0.000000 0.000000 0.000000 0.000000 0.000000 0.000000 0.000000 0.000000 0.000000 0.000000 0.000000 0.000000 0.000000 0.000000 0.000000 0.000000 0.000000 0.000000 0.000000 0.000000 0.000000 0.000000 0.000000 0.000000 0.000000 0.000000 0.000000 0.000000
0.077229 0.026438 1.092110 39.344146 -4.539854 12.439620 -77.672046 10.177148 -13.908538 37.723485 12.157582 6.745353 6.123991 2.832611 4.725487 -1.589481 -1.941454 -0.459258 -85.604312 9.422318 18.828012 51.078535 -12.777735 -11.362227 -6.730166 -1.311475 -14.014647 1.265897 -1.804651 0.468247 66.639753 -14.240767 4.736936 -9.764958 4.788162 7.663933 0.132839 0.195677 4.922684 -8.901180 15.470411 -15.593489 -9.972460 -6.875871 -2.541226 0.409411 16.842018 -24.936434 25.779945 45.341296 -40.508602 -12.696048 -18.119370 -63.100514 -17.790052 -23.353026 -15.106130 0.000000 0.000000 0.000000 0.000000 0.000000 0.000000 0.000000 0.000000 0.000000 0.000000 0.000000 0.000000 0.000000 0.000000 0.000000 0.000000 0.000000 0.000000 0.000000 0.000000 0.000000 0.000000 0.000000 0.000000 0.000000 0.000000 0.000000 0.000000 0.000000 0.000000 0.000000 0.000000 0.000000 0.000000 0.000000 0.000000 0.000000 0.000000 0.000000 0.000000 0.000000 0.000000 -2.762774 14.149303 38.268565 -30.231996 0.241723 22.511013 -17.529634 8.787161 8.715100 25.781978 27.039929 6.399632 0.000000 0.000000 0.000000 0.000000 0.000000 0.000000 0.000000 0.000000 0.000000 0.000000 0.000000 0.000000 0.000000 0.000000 0.000000 0.000000 0.000000 0.000000 0.000000 0.000000 0.000000 0.000000 0.000000 0.000000 0.000000 0.000000 0.000000 0.000000 0.000000 0.000000 0.000000 0.000000 0.000000 0.000000 0.000000 0.000000 0.000000 0.000000 0.000000 0.000000 0.000000 0.000000
0.076669 0.026773 1.091883 39.332862 -4.531391 12.436446 -77.825265 10.190330 -13.934325 38.043142 12.272918 6.737863 6.142550 2.845366 4.719478 -1.595879 -1.961447 -0.470584 -85.803938 9.479428 18.908239 51.441381 -12.923318 -11.297900 -6.534461 -1.439246 -13.976721 1.277815 -1.814730 0.479360 66.645751 -14.240113 4.743017 -9.684598 4.763847 7.673981 0.072873 0.203462 4.937947 -8.952554 15.475509 -15.648934 -10.014411 -6.865486 -2.603734 0.475417 16.879749 -25.019720 25.815405 45.341160 -40.605419 -12.794359 -17.983202 -63.094436 -17.968979 -23.229199 -15.112557 0.000000 0.000000 0.000000 0.000000 0.000000 0.000000 0.000000 0.000000 0.000000 0.000000 0.000000 0.000000 0.000000 0.000000 0.000000 0.000000 0.000000 0.000000 0.000000 0.000000 0.000000 0.000000 0.000000 0.000000 0.000000 0.000000 0.000000 0.000000 0.000000 0.000000 0.000000 0.000000 0.000000 0.000000 0.000000 0.000000 0.000000 0.000000 0.000000 0.000000 0.000000 0.000000 -2.768637 14.149852 38.296993 -30.324820 0.341106 22.530069 -17.891891 8.698990 8.595759 25.472557 26.867626 6.480266 0.000000 0.000000 0.000000 0.000000 0.000000 0.000000 0.000000 0.000000 0.000000 0.000000 0.000000 0.000000 0.000000 0.000000 0.000000 0.000000 0.000000 0.000000 0.000000 0.000000 0.000000 0.000000 0.000000 0.000000 0.000000 0.000000 0.000000 0.000000 0.000000 0.000000 0.000000 0.000000 0.000000 0.000000 0.000000 0.000000 0.000000 0.000000 0.000000 0.000000 0.000000 0.000000
